<svg width="55" height="78" viewBox="0 0 55 78" fill="none" xmlns="http://www.w3.org/2000/svg">
<path fill-rule="evenodd" clip-rule="evenodd" d="M34.2393 22.6422C31.9713 22.1222 29.5904 21.8382 27.1635 21.838C23.8144 21.8382 20.603 22.3618 17.5931 23.3403L40.748 0.477436C41.3875 -0.152226 42.4299 -0.15907 43.0801 0.456904L48.8573 5.94592C49.5075 6.56531 49.5181 7.57482 48.8785 8.20449L34.2393 22.6422ZM54.0901 55.0788L54.0906 55.0754V55.0788H54.0901ZM44.4866 55.0788H54.0901C52.396 68.0126 40.9907 77.9999 27.1619 77.9999C12.1764 77.9999 0 66.2245 0 51.6909C0 37.1574 12.1764 25.3854 27.1619 25.3854C40.9919 25.3854 52.3768 35.3711 54.087 48.3099H44.4866C44.0979 48.3099 43.7834 48.6145 43.7834 48.9909V49.7335H41.0237C40.0591 43.1631 34.2147 38.095 27.1619 38.095C19.3882 38.095 13.1198 44.1863 13.1198 51.6944C13.1198 59.2024 19.3882 65.2937 27.1619 65.2937C34.2183 65.2937 40.0591 60.2461 41.0237 53.6552H43.7834V54.3978C43.7834 54.7742 44.0979 55.0788 44.4866 55.0788ZM25.4853 3.87338L20.8388 2.29581C19.9802 2.00493 19.0403 2.44296 18.7364 3.27452L9.11118 29.847L26.2839 6.30306C26.9164 5.43727 26.5171 4.22586 25.4818 3.87681L25.4853 3.87338ZM0.784162 38.4331L0.890166 17.6131L0.8937 17.6097C0.900767 16.7303 1.63926 16.0185 2.5509 16.0219L5.21868 16.0356C6.31053 16.0424 7.09496 17.0553 6.79462 18.0717L0.784162 38.4331Z" fill="black"/>
<path d="M18.8299 49.6408C18.9253 46.2838 21.6037 43.683 25.0736 43.594C26.0347 43.5701 26.0382 42.1225 25.0736 42.1465C20.7839 42.2594 17.4519 45.4864 17.3353 49.6408C17.3105 50.5716 18.8052 50.5716 18.8299 49.6408Z" fill="black"/>
</svg>
