<svg width="295" height="43" viewBox="0 0 295 43" fill="none" xmlns="http://www.w3.org/2000/svg">
<path d="M4.8577 37.4651L4.80037 37.4116C2.18483 34.9121 0.694336 31.5839 0.694336 28.0352C0.694336 24.4864 2.18483 21.0981 4.80037 18.5986C7.48041 16.1592 11.049 14.7691 14.9186 14.7691C18.7881 14.7691 22.4141 16.0991 24.9723 18.5986C25.567 19.1533 26.04 19.6545 26.4628 20.1491L27.1794 21.1515L21.3463 25.2015L20.5151 24.1456C19.0891 22.3679 17.0038 21.2585 14.9186 21.2585C11.1708 21.2585 7.95335 24.3661 7.95335 28.0285C7.95335 31.6908 11.1637 34.7985 14.9186 34.7985C17.0038 34.7985 19.0819 33.6891 20.5151 31.8045L21.289 30.802L27.3585 34.852L26.4628 35.9079C26.341 36.075 26.1618 36.2421 25.9898 36.4091C25.6889 36.7433 25.3377 37.1309 24.9794 37.4651C22.3639 39.9044 18.7881 41.2945 14.9257 41.2945C11.0633 41.2945 7.5449 39.9044 4.87204 37.4651H4.8577Z" fill="black"/>
<path d="M50.9713 40.7337V27.1402C50.9713 24.1461 48.4131 21.8137 45.2028 21.8137C41.9925 21.8137 39.4343 24.1996 39.4343 27.1402V40.7337H31.9961V0H39.4343V17.1489C41.2759 15.4313 43.2393 14.8165 45.2028 14.8165C48.7714 14.8165 52.1035 16.093 54.6044 18.3652C57.1053 20.7511 58.474 23.8588 58.474 27.1335V40.727H50.9785L50.9713 40.7337Z" fill="black"/>
<path d="M67.3313 37.4012C64.6513 34.8482 63.168 31.5201 63.168 28.0248C63.168 24.5295 64.6585 21.2013 67.3313 18.6483C70.0114 16.1488 73.58 14.8189 77.385 14.8189C79.8859 14.8189 82.1432 15.6543 84.1066 17.3184L84.4076 17.5389V15.3201H91.6093V40.7361H84.4076V38.7378L84.1066 39.0185C81.964 40.9633 79.5276 41.2373 77.385 41.2373C73.6373 41.2373 70.0687 39.9074 67.3313 37.4079V37.4012ZM70.3625 28.0248C70.3625 31.6871 73.5728 34.7413 77.385 34.7413C81.1973 34.7413 84.4076 31.6871 84.4076 28.0248C84.4076 24.3624 81.1973 21.3082 77.385 21.3082C73.5728 21.3082 70.3625 24.4159 70.3625 28.0248Z" fill="black"/>
<path d="M98.873 7.98617C98.873 6.8233 99.346 5.76736 100.242 4.99212C101.137 4.15673 102.262 3.71564 103.517 3.71564C106.017 3.71564 108.096 5.66044 108.096 7.98617C108.096 10.3119 106.01 12.2567 103.517 12.2567C101.023 12.2567 98.873 10.3119 98.873 7.98617ZM99.647 40.7335V15.3176H107.379V40.7335H99.647Z" fill="black"/>
<path d="M135.287 40.7361V27.1426C135.287 24.1486 132.729 21.8161 129.518 21.8161C126.308 21.8161 123.75 24.202 123.75 27.1426V40.7361H116.312V15.3201H123.75V17.1513C125.591 15.4338 127.555 14.8189 129.518 14.8189C133.087 14.8189 136.419 16.0954 138.92 18.3677C141.421 20.7535 142.789 23.8612 142.789 27.1359V40.7294H135.294L135.287 40.7361Z" fill="black"/>
<path d="M153.693 41.7704V35.9427L166.427 22.1822H153.636V16.3545H175.176V22.1822L162.744 35.7757H175.241V41.7704H153.7H153.693Z" fill="black"/>
<path d="M184.829 38.4929C182.149 35.8865 180.666 32.4982 180.666 29.0563C180.666 25.6145 182.157 22.1727 184.829 19.6198C187.567 17.1804 191.135 15.7903 194.948 15.7903C198.76 15.7903 202.443 17.1804 205.001 19.6198C207.739 22.1727 209.229 25.5009 209.229 29.0563C209.229 32.6118 207.739 35.94 205.001 38.4929C202.264 41.0459 198.753 42.3758 194.948 42.3758C191.143 42.3758 187.631 40.9857 184.829 38.4929ZM187.689 29.0563C187.689 32.8858 190.963 35.9934 194.948 35.9934C198.932 35.9934 202.264 32.8858 202.264 29.0563C202.264 25.2269 198.989 22.1193 194.948 22.1193C190.906 22.1193 187.689 25.2269 187.689 29.0563Z" fill="black"/>
<path d="M218.812 38.4929C216.132 35.8865 214.648 32.4982 214.648 29.0563C214.648 25.6145 216.139 22.1727 218.812 19.6198C221.549 17.1804 225.118 15.7903 228.93 15.7903C232.742 15.7903 236.425 17.1804 238.984 19.6198C241.721 22.1727 243.212 25.5009 243.212 29.0563C243.212 32.6118 241.721 35.94 238.984 38.4929C236.246 41.0459 232.735 42.3758 228.93 42.3758C225.125 42.3758 221.614 40.9857 218.812 38.4929ZM221.671 29.0563C221.671 32.8858 224.946 35.9934 228.93 35.9934C232.914 35.9934 236.246 32.8858 236.246 29.0563C236.246 25.2269 232.972 22.1193 228.93 22.1193C224.888 22.1193 221.671 25.2269 221.671 29.0563Z" fill="black"/>
<path d="M286.649 41.767V28.1735C286.649 25.2329 283.969 22.6265 280.88 22.6265C277.792 22.6265 275.047 25.1794 275.047 28.1735V41.767H267.609V28.1735C267.609 25.1794 264.993 22.6265 261.84 22.6265C258.688 22.6265 256.072 25.2329 256.072 28.1735V41.767H248.634V16.351H256.072V18.1822C257.914 16.4646 259.877 15.8498 261.84 15.8498C263.567 15.8498 265.294 16.1839 266.957 16.8523C268.505 17.5206 269.931 18.4629 271.242 19.6258C271.242 19.6792 271.299 19.6792 271.364 19.7394L271.486 19.6258C272.733 18.4629 274.166 17.5139 275.771 16.8523C277.441 16.1839 279.16 15.8498 280.887 15.8498C284.399 15.8498 287.731 17.1263 290.232 19.3985C292.733 21.7844 294.101 24.8921 294.101 28.1668V41.7603H286.663L286.649 41.767Z" fill="black"/>
</svg>
